<?xml version="1.0" encoding="UTF-8"?>
<svg xmlns="http://www.w3.org/2000/svg" viewBox="0 0 353.15 281.96">
  <defs>
    <style>
      .cls-1 {
        fill: #d88e2e;
      }

      .cls-2 {
        fill: #9b482f;
      }

      .cls-3 {
        fill: #3a2725;
      }

      .cls-4 {
        fill: #bc4444;
      }

      .cls-5 {
        isolation: isolate;
      }

      .cls-6 {
        fill: #baa493;
        mix-blend-mode: multiply;
        opacity: .5;
      }

      .cls-7 {
        fill: #aa513c;
      }

      .cls-8 {
        fill: #772f20;
      }

      .cls-9 {
        fill: #ea9942;
      }

      .cls-10 {
        fill: #49312f;
      }

      .cls-11 {
        fill: #e54177;
      }

      .cls-12 {
        fill: #b59b85;
      }

      .cls-13 {
        fill: #ddd2d0;
      }

      .cls-14 {
        fill: #c4b1ae;
      }

      .cls-15 {
        fill: #5b403e;
      }

      .cls-16 {
        fill: #b7a4a1;
      }

      .cls-17 {
        fill: #843826;
      }

      .cls-18 {
        fill: #ede0d6;
      }

      .cls-19 {
        fill: #c97923;
      }

      .cls-20 {
        fill: #54271e;
      }

      .cls-21 {
        fill: #b25640;
      }

      .cls-22 {
        fill: #cc7b2b;
      }

      .cls-23 {
        fill: #af3838;
      }

      .cls-24 {
        fill: #ffac5a;
      }

      .cls-25 {
        fill: #ad633a;
      }

      .cls-26 {
        fill: #c6b3a1;
      }
    </style>
  </defs>
  <g class="cls-5">
    <g id="Capa_2" data-name="Capa 2">
      <g id="Capa_1-2" data-name="Capa 1">
        <g>
          <path class="cls-6" d="M57.65,276.93c13.92,6.11,35.83-3.31,44.4-18.52,8.56-15.21,22.39-22.28,32.91-32.17,10.52-9.89-1.34-20.96-30.65-7.72-29.31,13.24-79.55,43.99-46.66,58.42Z"/>
          <path class="cls-6" d="M112.58,264.55c-10.47-7.96,5.67-20.49,31.77-25.38,26.09-4.9,38.21-12.8,55.18-18.82,16.96-6.01,35.94,.77,13.24,17.52-22.71,16.76-75.44,45.47-100.18,26.68Z"/>
          <path class="cls-6" d="M229.7,238.39c11.1,3.38,17.45,.45,19.78-1.63,1.77-1.58,1.72-3.63,1.72-3.63l6.44,2.24h0c2.16,.87,4.47,1.68,6.5,2.16-.18,.3-.39,.61-.66,.94-.99,1.21-3.77,2.75,1.17,8.41,5.73,6.57,16.55,16.66,28.61,25.13,19.3,13.55,26.65,7.55,26.65,7.55,0,0-9.05-6.34-19.32-13.77-.47-.34-.95-.68-1.42-1.03-11.27-8.17-23.55-17.32-26.77-20.68-3.65-3.82-2.89-5.35-2.02-6.63,2.22-.5,4.87-.94,11.48,1.17,11.44,3.64,60.59,28.23,60.59,28.23,0,0,10.75-4.04-12.72-15.18-14.67-6.96-31.81-13.12-43.19-16.43-9.81-2.85-12.3-2.34-14.4-1.77-.57,.15-1.1,.27-1.62,.37-.87-1.28-2.24-2.83-3.63-4.29h0s-.07-.07-.07-.07c-.47-.49-.93-.96-1.38-1.41l-1.48-1.51s2.5-.13,5.23-1.15c3.61-1.35,8.68-5.01,2.83-11.42-6.68-7.32-14.23-13.31-25.49-12.17-11.26,1.14-9.19,7.19-2.06,13.94,7.11,6.74,17.07,14.81,17.13,14.86,1.25,1.25,2.16,2.29,2.67,3.25-1.47-.29-3.01-.76-4.82-1.4l.03-.05s-15.02-5.78-26.72-9.9c-11.7-4.12-22.17-5.31-24.15,1.19-1.98,6.5,8.41,10.86,21.08,14.71Zm34.25-15.76c-5.05,1.02-6.55-.05-10.51-3.75-4.59-4.29-8.58-8.23-9.37-10.34-1.17-3.09,3.77-4.66,9.34-3.8,5.58,.86,10.28,6.83,13.44,10.41,3.16,3.58,2.15,6.46-2.9,7.48Zm-43.64-.38c3.66,.46,10.49,2.76,17.91,5.41,6.4,2.28,8.25,3.15,6.49,6.07-1.76,2.92-6.75,3.49-12.95,1.67-6.21-1.82-16.54-4.54-18.04-7.76-1.49-3.22,1.23-6.07,6.58-5.4Z"/>
          <path class="cls-6" d="M147.96,191.79c-.03,3.42,4.86,6.23,10.93,6.29,6.07,.06,11.02-2.66,11.05-6.08,.03-3.42-4.86-6.23-10.93-6.29-6.07-.06-11.02,2.66-11.05,6.08Z"/>
          <path class="cls-6" d="M174.38,177.56c-.03,3.42,4.86,6.23,10.93,6.29,6.07,.06,11.02-2.66,11.05-6.08,.03-3.42-4.86-6.23-10.93-6.29-6.07-.06-11.02,2.66-11.05,6.08Z"/>
          <path class="cls-6" d="M140.66,126.67c-.08,8.36,11.9,15.26,26.75,15.4,14.86,.14,26.97-6.52,27.05-14.88,.08-8.36-11.9-15.26-26.75-15.4-14.86-.14-26.97,6.52-27.05,14.88Z"/>
          <path class="cls-6" d="M69.66,210.56c5.6-4.13,11.82-10.89,19.97-15.32,2.72-1.48,5.24-2.4,7.69-2.98,.85-.4,1.4-.62,1.47-.54l.3,.18c7.19-1.28,13.83,.06,22.56-1.42,6.17-1.05,10.68-4.03,13.88-5.72l2.81,1.88c-2.14,2.99-5.37,6.07-10.2,7.32-6.2,1.61-12.09,2.63-18.18,4.31l97.55,56.83c.91,.53,.92,1.84,.02,2.38l-9.13,5.51c-1.39,.84-3.12,.86-4.53,.05l-98.38-56.45c-4.68,2.89-11.01,7.16-17.1,10.54-6.55,3.63-11.58,5.03-11.58,5.03l-7.83-5.89s5-1.52,10.67-5.7Z"/>
          <path class="cls-6" d="M296.33,146.82c11.18-6.12-8.41-20.69-24.59-23.89-25.23-4.98-23.29-13.06-39.72-18.88-16.43-5.83-26.64,5.85-4.65,22.08,21.99,16.23,46.91,32.76,68.96,20.69Z"/>
          <path class="cls-6" d="M345.85,144.89c-13.83,4.6-33.59,1.93-44.9-8.9-10.17-9.74-21.74-18.65-30.21-26.31-10.28-9.28,1.28-20.1,29.4-7.4,28.11,12.7,70.04,34.52,45.71,42.62Z"/>
          <path class="cls-6" d="M22.1,193.31c23.7,14.08,57.79-6.65,70.04-16.39,9.92-7.89,28.2-19.09,36.68-26.74,10.28-9.28-2.97-25.42-31.08-12.72-28.11,12.7-103.22,39.46-75.64,55.85Z"/>
          <path class="cls-6" d="M5.68,160.86c22.5,13.37,54.87-6.31,66.5-15.56,9.42-7.49,26.78-18.12,34.82-25.39,9.76-8.82-2.82-24.13-29.51-12.08-26.69,12.06-98.01,37.47-71.82,53.03Z"/>
          <path class="cls-17" d="M114.31,262.99c-10.14-7.71,5.5-19.84,30.77-24.58,25.27-4.74,37.01-12.4,53.44-18.23,16.43-5.83,34.81,.74,12.82,16.97-21.99,16.23-73.07,44.05-97.03,25.84Z"/>
          <g>
            <path class="cls-17" d="M115.18,255.52l-4-.37s-.02,2.48,0,2.68c.02,.2,2.97,1.22,2.97,1.22l1.03-3.53Z"/>
            <polygon class="cls-17" points="221.43 224.7 221.43 221.54 218.6 221.54 218.89 224.73 221.43 224.7"/>
            <path class="cls-7" d="M114.31,260.58c-10.14-7.71,5.5-19.84,30.77-24.58,25.27-4.74,37.01-12.4,53.44-18.23,16.43-5.83,34.81,.74,12.82,16.97-21.99,16.23-73.07,44.05-97.03,25.84Z"/>
          </g>
          <g>
            <path class="cls-17" d="M103.18,218.45c28.11-12.7,39.49-2.08,29.4,7.4-10.09,9.49-23.35,16.26-31.57,30.85-8.21,14.59-29.23,23.62-42.58,17.77-31.54-13.83,16.64-43.33,44.75-56.02Z"/>
            <polygon class="cls-17" points="51.48 259.05 50.82 264.2 50.45 264.2 48.14 263.62 48.1 260.01 51.48 259.05"/>
            <path class="cls-7" d="M103.18,216.04c28.11-12.7,39.49-2.08,29.4,7.4-10.09,9.49-23.35,16.26-31.57,30.85-8.21,14.59-29.23,23.62-42.58,17.76-31.54-13.83,16.64-43.33,44.75-56.02Z"/>
          </g>
          <g>
            <path class="cls-20" d="M105.63,102.1s4.43-1.27,6.01,2.44c1.75,4.11,1.18,6.58-.9,10.49-3.93,7.39-17.22,12.69-17.22,12.69l-1.44-1.18s-6.55,4.47-8.9,7.06c-2.35,2.59-10.33,10.47-23.05,17.52-12.72,7.06-22.69,10.28-34.93,11.21-11.72,.9-16.08-.87-19.25-3.81-4.23-3.92-2.66-8.23-1.25-11.88,2.08-5.38,7.68-5.76,7.68-5.76l93.26-38.79Z"/>
            <path class="cls-2" d="M4.69,140.66c1.12-2.61,7.01-8.8,14.24-15.82,4.93-4.78,10.47-9.95,15.55-14.64,12.54-11.57,20.59-17.95,31.99-19.66,14.11-2.12,23.07-8.05,34.18-7.27,3.03,.21,7.34,1.25,9.69,10.02,.76,2.85,1.06,5.94,1.15,8.6,.05,1.71,.93,4.98-.73,8.31-2.2,4.41-7.84,9.44-15.41,12.88-2.98,1.36-5.38,2.83-7.53,4.42-7.48,5.55-10.36,11.65-25.41,20.44-22.23,12.98-42.03,12.45-49.4,11.37-2.86-.42-7.99-1.75-8.27-4.88l-.04,.02s-1.88-9.41,0-13.8Z"/>
            <path class="cls-9" d="M103.47,84.84c3.14,1.08,5.14,4.49,2.32,8.45-2.82,3.96-12.04,9.17-18.94,11.26-6.9,2.08-13.64-.42-18.66-1.37-5.02-.94-13.17-2.74-13.17-2.74,0,0-1.55-5.87,7.06-7.76,4.7-1.03,14.91-2.46,22.74-5.49,9.72-3.76,16.11-3.23,18.66-2.35Z"/>
            <path class="cls-25" d="M25.28,118.8c6.96,7.55,16.66,12.22,26.97,12.59,5.59,.2,11.23-.84,16.37-3.03,2.44-1.04,4.65-2.39,6.91-3.78,1.78-1.1,3.73-2.21,5.88-2.25,1.67-.03,3.25,.79,4.12,2.07,.29,.42,.84,3.63,.95,4.14,.35,.01,.57-.35,.78-.61-.08-.57-.67-3.55-.99-4.02-1.06-1.6-3.27-2.56-5.37-2.43-2.69,.17-4.97,1.64-7.2,3-3.08,1.87-6.31,3.39-9.78,4.38-7.49,2.16-15.24,1.82-22.31-.63,1.09-.97,18.21-17.16,25.14-22.03,2.15,.68,4.3,1.36,6.48,1.85,6.17,1.37,12.52,.64,18.34-1.79,3.34-1.39,19.57-11.28,17.54-17.13-.25-.72-.72-1.11-.75-.74,2.3,4.27-7.56,11.17-10.45,13.15-4.87,3.34-10.49,5.69-16.43,6.11-10.21,.73-20.83-6.46-29.88-4.75,1.02-2.07,1.35-5.76,1.25-7.44,0-.08-.59,.31-.6,.38-.16,1.4-.08,2.77-.45,4.15-.16,.58-.35,1.14-.61,1.67-1.83,3.68-16.55,17.62-19.61,21.32-1.98-1.45-3.85-3.09-5.56-4.92-.3,.24-.73,.73-.73,.73Zm7.1,4.76c3.02-3.42,6.09-6.78,9.32-10.01,2-2,4.84-5.06,6.95-7,1.33-1.23,2.95-2.7,5.11-2.93,4.29-.44,7.91,.96,12.04,2.28-7.4,5.47-24.04,20.78-25.02,22.02-2.95-1.1-5.78-2.55-8.4-4.36Z"/>
            <path class="cls-17" d="M110.34,93.29s-.13,6.78-8.44,12.57c-8.31,5.79-8.62,9.24-9.41,11.75-.78,2.51,0,6.9,0,6.9,0,0,9.92-4.05,14.68-9.47,4.76-5.42,6.33-7.46,3.17-21.74Z"/>
            <path class="cls-25" d="M16.72,127.01c1.96,3.4,4.87,3.8,8.58,2.57,.87-.29,1.7-.7,2.53-1.09,.73-.34,2.08-.65,1.12,.7-1.99,2.77-.39,6.73,2.41,8.52,2.6,1.67,6.06,2.12,9.08,2.26,5.9,.28,11.74-1.14,17.28-3.05,4.85-1.67,10.98-5.04,15.98-6.2,3.09-.72,4.92,.49,6.56,3.43-.31,.25-.64,.55-.64,.55-2.58-5.1-6.84-2.57-10.39-1.13-3.2,1.29-6.36,2.67-9.6,3.86-6.13,2.26-12.6,4.01-19.2,3.7-4.54-.21-10.33-1.2-12.7-5.59-1.02-1.89-1.01-4.07-.08-5.74-2.07,1.01-4.42,1.66-6.4,1.47-2.18-.2-4.64-1.56-5.02-3.81-.04-.21,0,0,.48-.45Z"/>
            <path class="cls-17" d="M13.34,154.59c7.01,1.69,16.71-1.11,23.5-2.8,13.15-3.29,26.5-12.54,35.28-18.08,4.74-2.99,7.04-.55,7.84,.69-4.45,4.19-8.15,8.06-17.55,13.55-22.23,12.98-40.65,13.74-48.02,12.62-4.36-.67-9.37-3-9.65-6.13l-.04,.02s-.57-2.89-.77-6.21c1.73,2.11,6,5.52,9.42,6.35Z"/>
            <path class="cls-22" d="M95.14,94.78c2.29,.49,4.45,1.45,6.33,2.5-4.1,2.95-9.9,5.84-14.62,7.27-5.49,1.66-10.87,.41-15.37-.64,10.42-5.33,17.53-10.44,23.66-9.13Z"/>
            <path class="cls-20" d="M47.48,100.38c3.05,4.24,7.27,6.09,11.97,7.89,.69,.26,.51,1.08-.35,.95-5.49-.86-9.65-4.06-12.58-8.27-.42-.6,.56-1.15,.97-.57Z"/>
            <path class="cls-20" d="M42.97,104.6c3.05,4.24,7.27,6.09,11.97,7.89,.69,.26,.51,1.08-.35,.95-5.49-.86-9.65-4.06-12.58-8.27-.42-.59,.56-1.15,.97-.57Z"/>
            <path class="cls-20" d="M38.43,108.67c3.05,4.24,7.27,6.09,11.97,7.89,.69,.26,.51,1.08-.35,.95-5.49-.86-9.65-4.07-12.58-8.27-.42-.6,.56-1.15,.97-.57Z"/>
            <path class="cls-20" d="M33.45,113.22c3.05,4.24,7.27,6.09,11.97,7.89,.69,.26,.51,1.08-.35,.95-5.49-.86-9.65-4.06-12.58-8.27-.42-.6,.56-1.15,.97-.57Z"/>
            <path class="cls-20" d="M28.81,117.58c3.05,4.24,7.27,6.09,11.97,7.89,.69,.26,.51,1.08-.35,.95-5.49-.86-9.65-4.06-12.58-8.27-.42-.6,.56-1.15,.97-.57Z"/>
            <path class="cls-20" d="M40.46,102.07c1.28,1.45,7.7,2.28,9.91,1.83,.13,3.6,1.57,7.96,3.96,10.62,.28,.31,.67-.09,.53-.41-.83-1.87-1.92-3.55-2.61-5.5-.35-.99-.62-2-.87-3.01,1.36,2.24,3.12,4.4,5.3,5.69,1.66,.98,4.25,1.22,5.37-.74,1.19-2.07-.87-4.07-2.44-5.13-2.39-1.61-5.62-2.72-8.54-2.32,0,0,0,0,0,0-.02,0-.03-.02-.05-.03-.05-.07-.11-.12-.17-.14,.32-2.5,.13-5.52-1.15-7.66-.82-1.37-2.53-2.44-4.12-1.6-1.78,.93-1.16,3.22-.49,4.65,.97,2.08,2.62,3.76,4.53,5-1.28-.15-6.47-.88-8.87-1.73-.28-.1-.47,.26-.28,.48Zm10.92,1.66c1.83,.22,3.59,.41,5.34,1.13,.86,.35,1.69,.77,2.46,1.3,.53,.34,1.02,.74,1.45,1.2,1.2,.99,1.37,1.78,.36,2.96-.81,.95-1.75,1.19-2.78,.74-.77-.28-1.46-.69-2.08-1.23-.72-.59-1.38-1.29-1.99-2-1.09-1.26-1.98-2.64-2.76-4.09Zm-1.18-.78c-1.1-.67-3.18-2.78-4.66-5.54-.55-.72-.47-2.05-.16-2.63,.26-.47,1.01-1,2.07-.59,.73,.28,1.28,.75,1.64,1.43,.46,.77,.7,1.7,.9,2.57,.34,1.5,.2,3.24,.22,4.76Z"/>
          </g>
          <g>
            <path class="cls-20" d="M121.63,134.22s4.43-1.27,6.01,2.44c1.75,4.11,1.18,6.58-.9,10.49-3.93,7.39-17.22,12.69-17.22,12.69l-1.44-1.18s-6.55,4.47-8.9,7.06c-2.35,2.59-10.33,10.47-23.05,17.52-12.72,7.06-22.69,10.28-34.93,11.21-11.72,.9-16.08-.87-19.25-3.81-4.23-3.92-2.66-8.23-1.25-11.88,2.08-5.38,7.68-5.76,7.68-5.76l93.26-38.79Z"/>
            <path class="cls-2" d="M20.69,172.77c1.12-2.61,7.01-8.8,14.24-15.82,4.93-4.78,10.47-9.95,15.55-14.64,12.54-11.57,20.59-17.95,31.99-19.66,14.11-2.12,23.07-8.05,34.18-7.27,3.03,.21,7.34,1.25,9.69,10.02,.77,2.85,1.06,5.94,1.15,8.6,.05,1.71,.93,4.98-.73,8.31-2.2,4.41-7.84,9.44-15.41,12.88-2.98,1.36-5.38,2.83-7.53,4.42-7.48,5.55-10.36,11.65-25.41,20.44-22.23,12.98-42.03,12.45-49.4,11.37-2.86-.42-7.99-1.75-8.27-4.88l-.04,.02s-1.88-9.41,0-13.8Z"/>
            <path class="cls-9" d="M119.47,116.95c3.14,1.08,5.14,4.49,2.32,8.45-2.82,3.96-12.04,9.17-18.94,11.26-6.9,2.08-13.64-.42-18.66-1.37-5.02-.94-13.17-2.74-13.17-2.74,0,0-1.55-5.87,7.06-7.76,4.7-1.03,14.91-2.46,22.74-5.49,9.72-3.76,16.11-3.23,18.66-2.35Z"/>
            <path class="cls-25" d="M41.29,150.92c6.96,7.55,16.66,12.22,26.97,12.59,5.59,.2,11.23-.84,16.37-3.03,2.44-1.04,4.65-2.39,6.91-3.78,1.78-1.1,3.73-2.21,5.88-2.25,1.67-.03,3.25,.79,4.12,2.07,.29,.42,.84,3.63,.95,4.14,.35,.01,.57-.35,.78-.61-.08-.57-.67-3.55-.99-4.02-1.06-1.6-3.27-2.56-5.37-2.43-2.69,.17-4.97,1.64-7.2,3-3.08,1.87-6.31,3.39-9.78,4.38-7.49,2.16-15.24,1.82-22.31-.63,1.09-.97,18.21-17.16,25.14-22.03,2.15,.68,4.3,1.36,6.48,1.85,6.17,1.37,12.52,.64,18.34-1.79,3.34-1.39,19.57-11.28,17.54-17.13-.25-.72-.72-1.11-.75-.74,2.3,4.27-7.56,11.17-10.45,13.15-4.87,3.34-10.49,5.69-16.43,6.11-10.21,.73-20.83-6.46-29.88-4.75,1.02-2.07,1.35-5.76,1.25-7.44,0-.08-.59,.31-.6,.38-.16,1.4-.08,2.77-.45,4.15-.16,.58-.35,1.14-.61,1.67-1.83,3.68-16.56,17.62-19.61,21.32-1.98-1.45-3.85-3.09-5.56-4.92-.3,.24-.73,.73-.73,.73Zm7.1,4.76c3.02-3.42,6.09-6.78,9.32-10,2-2,4.84-5.06,6.95-7,1.33-1.23,2.95-2.7,5.11-2.93,4.29-.44,7.91,.96,12.04,2.28-7.4,5.47-24.04,20.78-25.02,22.02-2.95-1.1-5.78-2.55-8.4-4.36Z"/>
            <path class="cls-17" d="M126.34,125.4s-.13,6.78-8.44,12.57c-8.31,5.79-8.62,9.24-9.41,11.75-.78,2.51,0,6.9,0,6.9,0,0,9.92-4.05,14.68-9.47,4.76-5.42,6.33-7.46,3.17-21.74Z"/>
            <path class="cls-25" d="M32.72,159.13c1.96,3.4,4.87,3.8,8.58,2.57,.87-.29,1.7-.7,2.53-1.09,.73-.34,2.08-.65,1.12,.7-1.99,2.77-.39,6.73,2.41,8.52,2.6,1.67,6.06,2.12,9.08,2.26,5.9,.28,11.74-1.14,17.28-3.05,4.85-1.67,10.98-5.04,15.98-6.2,3.09-.72,4.92,.49,6.56,3.43-.31,.25-.64,.55-.64,.55-2.58-5.1-6.84-2.57-10.39-1.13-3.2,1.29-6.36,2.67-9.6,3.86-6.13,2.26-12.6,4.01-19.2,3.7-4.54-.21-10.33-1.2-12.7-5.59-1.02-1.89-1.01-4.07-.08-5.74-2.07,1.01-4.42,1.66-6.4,1.47-2.18-.2-4.64-1.56-5.02-3.81-.04-.21,0,0,.48-.45Z"/>
            <path class="cls-17" d="M29.34,186.71c7.01,1.69,16.71-1.11,23.49-2.8,13.15-3.29,26.5-12.54,35.28-18.08,4.74-2.99,7.04-.55,7.84,.69-4.45,4.19-8.15,8.06-17.55,13.55-22.23,12.98-40.65,13.74-48.02,12.62-4.36-.67-9.37-3-9.65-6.13l-.04,.02s-.57-2.89-.77-6.21c1.73,2.11,6,5.52,9.42,6.35Z"/>
            <path class="cls-22" d="M111.14,126.89c2.29,.49,4.45,1.45,6.33,2.5-4.1,2.95-9.9,5.84-14.62,7.27-5.49,1.66-10.87,.41-15.37-.64,10.42-5.33,17.53-10.44,23.66-9.13Z"/>
            <path class="cls-20" d="M63.49,132.5c3.05,4.24,7.27,6.09,11.97,7.89,.69,.26,.51,1.08-.35,.95-5.49-.86-9.65-4.06-12.58-8.27-.42-.6,.56-1.15,.97-.57Z"/>
            <path class="cls-20" d="M58.98,136.71c3.05,4.24,7.27,6.09,11.97,7.89,.69,.26,.51,1.08-.35,.95-5.49-.86-9.65-4.06-12.58-8.27-.42-.6,.56-1.15,.97-.57Z"/>
            <path class="cls-20" d="M54.43,140.79c3.05,4.24,7.27,6.09,11.97,7.89,.69,.26,.51,1.08-.35,.95-5.49-.86-9.65-4.07-12.58-8.27-.42-.6,.56-1.15,.97-.57Z"/>
            <path class="cls-20" d="M49.46,145.34c3.05,4.24,7.27,6.09,11.97,7.89,.69,.26,.51,1.08-.35,.95-5.49-.86-9.65-4.06-12.58-8.27-.42-.6,.56-1.15,.97-.57Z"/>
            <path class="cls-20" d="M44.81,149.7c3.05,4.24,7.27,6.09,11.97,7.89,.69,.26,.51,1.08-.35,.95-5.49-.86-9.65-4.06-12.58-8.27-.42-.6,.56-1.15,.97-.57Z"/>
            <path class="cls-20" d="M56.46,134.18c1.28,1.45,7.7,2.28,9.91,1.83,.13,3.6,1.57,7.96,3.96,10.62,.28,.31,.67-.09,.53-.41-.83-1.87-1.92-3.55-2.61-5.5-.35-.99-.62-2-.87-3.01,1.36,2.24,3.12,4.4,5.3,5.69,1.66,.98,4.25,1.22,5.37-.74,1.19-2.07-.87-4.07-2.44-5.13-2.39-1.61-5.62-2.72-8.54-2.32,0,0,0,0,0,0-.02,0-.03-.02-.05-.03-.05-.07-.11-.12-.17-.14,.32-2.5,.13-5.52-1.15-7.66-.82-1.37-2.53-2.44-4.12-1.6-1.78,.93-1.16,3.22-.49,4.65,.97,2.08,2.62,3.76,4.53,5-1.28-.15-6.47-.88-8.87-1.73-.28-.1-.47,.26-.28,.48Zm10.92,1.66c1.83,.22,3.59,.41,5.34,1.13,.86,.35,1.69,.77,2.46,1.3,.53,.34,1.02,.74,1.45,1.2,1.2,.99,1.37,1.78,.36,2.97-.81,.95-1.75,1.19-2.78,.74-.77-.28-1.46-.69-2.08-1.23-.72-.59-1.38-1.29-1.99-2-1.09-1.26-1.98-2.64-2.76-4.09Zm-1.18-.78c-1.1-.67-3.18-2.78-4.66-5.54-.55-.72-.47-2.05-.16-2.63,.26-.47,1.01-1,2.07-.59,.73,.28,1.28,.75,1.64,1.43,.46,.77,.7,1.7,.9,2.57,.34,1.51,.2,3.24,.22,4.76Z"/>
          </g>
          <g>
            <path class="cls-10" d="M135.48,178.62c-2.84,1.5-10.58,6.71-16.04,7.64-10.96,1.86-16.92,1.74-27.1,7.29-14.52,7.9-27.13,18.61-27.13,18.61l5.44,3.18s7.6-2.87,15.15-6.69c4.66-2.36,8.67-4.32,11.22-5.68,8.19-4.36,11.38-6.07,14.8-7.98,6.42-3.58,9.32-2.85,14.37-3.58,4.37-.64,7.01-1.42,9.28-3.97v-8.82Z"/>
            <path class="cls-15" d="M132.99,176.96c-2.84,1.5-6.83,4.14-12.29,5.07-10.96,1.86-18.18-1.32-28.36,4.22-7.21,3.93-12.72,9.91-17.68,13.57-5.02,3.7-9.44,5.05-9.44,5.05l4.64,4.81s5.53-1.61,11.26-4.95c5.75-3.35,11.7-8.45,16.1-10.73,10.54-5.47,19.46-6.35,29.23-8.89,4.27-1.11,7.13-3.83,9.03-6.49l-2.49-1.66Z"/>
            <g>
              <path class="cls-3" d="M74.74,213c0-4.08-2.48-8.83-5.55-10.6-1.38-.8-2.64-.85-3.61-.3h0s-3.92,2.51-3.92,2.51l2.3,4.6c.52,2.27,1.64,4.52,3.08,6.16l2.15,4.31,3.79-2.29h0c1.08-.73,1.76-2.25,1.76-4.39Z"/>
              <path class="cls-15" d="M60.19,208.77c0,4.08,2.48,8.83,5.55,10.6,3.06,1.77,5.55-.11,5.55-4.19s-2.48-8.83-5.55-10.6c-3.06-1.77-5.55,.11-5.55,4.19Z"/>
            </g>
            <path class="cls-3" d="M106.33,192.06c-.39-.23-.94-.24-1.61,.15l-8.19,4.73c-1.3,.75-2.48,2.57-2.63,4.04-.06,.62,.08,1.07,.35,1.35l6.38,3.75,12-10.28s-4.67-2.75-6.31-3.73Z"/>
            <path class="cls-3" d="M110.65,201.38l-8.19,4.73c-1.3,.75-2.24,.16-2.09-1.31h0c.15-1.47,1.33-3.29,2.63-4.04l8.19-4.73c1.3-.75,2.24-.16,2.09,1.31h0c-.15,1.47-1.33,3.29-2.63,4.04Z"/>
            <g>
              <path class="cls-9" d="M103.4,202c-.97,.56-1.86,1.93-1.97,3.03-.05,.48,.06,.82,.28,1.03h0c.08,.08,.17,.13,.28,.17l94.2,55.24,5.26-4.23-96.88-55.93-1.18,.7Z"/>
              <path class="cls-24" d="M112.37,197.44c-.28-.28-.75-.3-1.31,.02l-6.48,3.85,96.88,55.93,5.44-4.37-94.52-55.43Z"/>
              <path class="cls-19" d="M205.16,256.9l-7.66,4.55c-.97,.56-1.68,.12-1.57-.99h0c.11-1.11,1-2.47,1.97-3.03l7.66-4.55c.97-.56,1.68-.12,1.57,.99h0c-.11,1.11-1,2.47-1.97,3.03Z"/>
            </g>
          </g>
          <g>
            <path class="cls-10" d="M144.69,188.24c2.6-3.06,7.47-3.32,10.78-5.24,.08-.05,.18,.07,.11,.14-2.67,2.21-6.27,2.44-8.96,4.53-2.56,1.98-3.38,5.49-.22,7.38,1.94,1.16,4.43,1.39,6.62,1.65,5.19,.61,12.42,.76,15.09,6.22,.12,.25-.22,.58-.42,.33-3.51-4.47-8.27-5.11-13.63-5.58-3.09-.27-7-.41-9.35-2.75-1.91-1.89-1.68-4.7,0-6.67Z"/>
            <g>
              <path class="cls-9" d="M167.56,189.53l-.03,2.08h0c-.03,2.65-3.93,4.76-8.64,4.72-4.71-.05-8.57-2.23-8.54-4.88h0l.03-2.08,17.18,.17Z"/>
              <path class="cls-24" d="M150.38,189.36c-.03,2.67,3.8,4.87,8.54,4.92,4.74,.05,8.61-2.08,8.64-4.75s-3.8-4.87-8.54-4.92-8.61,2.08-8.64,4.75Z"/>
            </g>
            <path class="cls-10" d="M164.95,168.91l-.02,20.34h0c-.02,1.85-2.74,3.32-6.02,3.29-3.28-.03-5.97-1.56-5.96-3.4h0l.02-20.34,11.97,.12Z"/>
            <g>
              <path class="cls-3" d="M154.26,178.92c-.45-.47-.89-.96-1.29-1.45v-1.21c.5-.04,.99-.09,1.46-.15,2.47-.32,5-.92,7.28-1.94,1.45-.65,2.43-1.38,3.24-2.26v3.77c-2.31,2.39-6.7,3.22-10.69,3.24Z"/>
              <path class="cls-3" d="M164.94,186.16v3.31c-2.74,.94-9.06,1.15-11.98-2.89v-3.59c2.71,3.34,8.91,4.77,11.98,3.17Z"/>
            </g>
            <g>
              <path class="cls-15" d="M152.97,178.34v-3.37c1.23,1.1,2.58,2.02,3.55,2.6,2.53,1.49,5.45,2.64,8.42,3.09v3.1c-6.73-.4-10.57-3.85-11.97-5.42Z"/>
              <path class="cls-15" d="M152.98,168.8l3.12,.03c2.11,2.93,5.29,5.46,8.85,6.04v2.79c-4.85-1.22-9.77-3.85-11.97-8.25v-.62Z"/>
            </g>
            <g>
              <path class="cls-9" d="M167.56,165.55l-.03,2.08h0c-.03,2.65-3.93,4.76-8.64,4.72-4.71-.05-8.57-2.23-8.54-4.88h0l.03-2.08,17.18,.17Z"/>
              <path class="cls-24" d="M150.38,165.38c-.03,2.67,3.8,4.87,8.54,4.92,4.74,.05,8.61-2.08,8.64-4.75s-3.8-4.87-8.54-4.92c-4.74-.05-8.61,2.08-8.64,4.75Z"/>
            </g>
            <path class="cls-3" d="M152.96,181.69v3.31c2.74,.94,9.06,1.15,11.98-2.89v-3.59c-2.71,3.34-8.91,4.77-11.98,3.17Z"/>
            <path class="cls-15" d="M164.95,186.86s-3.45,2.3-7,2.5c-3.55,.2-4.99-.22-4.99-.22l.02-.74s1.47,.65,5.5-.26c4.03-.91,6.46-2.56,6.46-2.56v1.29Z"/>
          </g>
          <g>
            <path class="cls-17" d="M199.65,173.89c-2.6-3.06-7.47-3.32-10.78-5.24-.08-.05-.18,.07-.1,.14,2.67,2.21,6.27,2.44,8.96,4.53,2.56,1.98,3.38,5.49,.22,7.38-1.94,1.16-4.43,1.39-6.62,1.65-5.19,.61-12.42,.76-15.09,6.22-.12,.25,.22,.58,.42,.33,3.51-4.47,8.27-5.11,13.63-5.58,3.09-.27,7-.41,9.35-2.75,1.91-1.89,1.68-4.7,0-6.67Z"/>
            <g>
              <path class="cls-9" d="M176.77,175.18l.03,2.08h0c.03,2.65,3.93,4.76,8.64,4.72,4.71-.05,8.57-2.23,8.54-4.88h0l-.03-2.08-17.18,.17Z"/>
              <path class="cls-24" d="M193.96,175.01c.03,2.67-3.8,4.87-8.54,4.92-4.74,.05-8.61-2.08-8.64-4.75s3.8-4.87,8.54-4.92c4.74-.05,8.61,2.08,8.64,4.75Z"/>
            </g>
            <path class="cls-2" d="M179.38,154.57l.02,20.34h0c.02,1.85,2.74,3.32,6.02,3.29,3.28-.03,5.97-1.56,5.95-3.4h0l-.02-20.34-11.97,.12Z"/>
            <g>
              <path class="cls-21" d="M190.07,164.58c.45-.47,.89-.96,1.29-1.45v-1.21c-.5-.04-.99-.09-1.46-.15-2.47-.32-5-.92-7.28-1.94-1.45-.65-2.43-1.38-3.24-2.26v3.77c2.31,2.39,6.7,3.22,10.69,3.24Z"/>
              <path class="cls-21" d="M179.4,171.81v3.31c2.74,.94,9.06,1.15,11.98-2.89v-3.59c-2.71,3.34-8.91,4.77-11.98,3.17Z"/>
            </g>
            <g>
              <path class="cls-17" d="M191.37,163.99v-3.37c-1.23,1.1-2.58,2.02-3.55,2.6-2.53,1.49-5.45,2.64-8.42,3.09v3.1c6.73-.4,10.57-3.85,11.97-5.42Z"/>
              <path class="cls-17" d="M191.36,154.45l-3.12,.03c-2.11,2.93-5.29,5.46-8.85,6.04v2.79c4.85-1.22,9.77-3.85,11.97-8.25v-.62Z"/>
            </g>
            <g>
              <path class="cls-9" d="M176.77,151.2l.03,2.08h0c.03,2.65,3.93,4.76,8.64,4.72,4.71-.05,8.57-2.23,8.54-4.88h0l-.03-2.08-17.18,.17Z"/>
              <path class="cls-24" d="M193.96,151.03c.03,2.67-3.8,4.87-8.54,4.92-4.74,.05-8.61-2.08-8.64-4.75-.03-2.67,3.8-4.87,8.54-4.92,4.74-.05,8.61,2.08,8.64,4.75Z"/>
            </g>
            <path class="cls-21" d="M191.38,167.35v3.31c-2.74,.94-9.06,1.15-11.98-2.89v-3.59c2.71,3.34,8.91,4.77,11.98,3.17Z"/>
            <path class="cls-17" d="M179.39,172.51s3.45,2.3,7,2.5c3.55,.2,4.99-.22,4.99-.22l-.02-.74s-1.47,.65-5.5-.26c-4.03-.91-6.46-2.56-6.46-2.56v1.29Z"/>
          </g>
          <g>
            <path class="cls-3" d="M271.75,70.01c-4.04,5.98-1.31,8.21-.59,17.62,.72,9.41,.59,19.5,.59,19.5h6.56s-.44-13.97,1.22-18.15c1.06-2.68,3.16-2.53,3.16-2.53l-10.94-16.45Z"/>
            <path class="cls-3" d="M278.3,107.14c0,.84-1.47,1.53-3.28,1.53s-3.28-.68-3.28-1.53c0-.84,1.47-1.53,3.28-1.53s3.28,.68,3.28,1.53Z"/>
            <path class="cls-11" d="M273.53,65.56c.37-5.41,5.35-9.31,16.19,.95,9.47,8.97,17.21,21.39,23.63,29.36,6.61,8.21,13.55,16.04,18.9,21.15,3.94,3.77-7.64,14.62-7.64,14.62,0,0-18.49-3.09-24.86-15.69-6.37-12.6-13.97-24.5-20.39-32.58-6.42-8.07-6.31-10.86-5.83-17.82Z"/>
            <path class="cls-3" d="M273.5,72.44c-9.03,4.47,3.17,14.67,10.1,23.03,6.93,8.36,9.8,18.82,14.07,30.7,4.27,11.89,21.35,13.79,33.03,13.79,11.68,0,6.02-12.84-5.19-22.34-11.21-9.51-16.89-20.13-27.88-33.5-10.66-12.97-17.38-15.02-24.12-11.68Z"/>
            <path class="cls-10" d="M349.79,135.55c-2.44-6.98-12.17-13.74-16.53-17.59-2.4-3.21-6.17-8.65-9.6-15.29-4.47-8.68-7-16.6-9.41-27.28,3.1-2.96,1.83-5.57-3.18-8.14,.92-.78,3.59-3.02,3.18-5.54-.42-2.62-3.92-5.56-3.79-8.7,.73-18.71,1.15-42.5,.61-41.45-.64,1.25-40.78-5.48-40.78-5.48,0,0,2.21,13.78,3.24,29.06,.77,11.46,0,18.88-3.24,26.58-.84,1.99,2.07,3.85,1.55,5.54-1.25,2.84-2.41,6.46-2.26,9.96,.31,7.33,6.55,9.84,16.25,23,7.46,10.12,9.06,17.89,11.84,25.97,1.94,5.64,6.73,10.83,14.58,13.44,3.39,1.13,9.99,3.45,14.55,3.44,14.16-.01,24.64-2.78,22.99-7.51Z"/>
            <path class="cls-15" d="M349.79,135.55c-2.44-6.98-12.17-13.74-16.53-17.59-2.4-3.21-6.17-8.65-9.6-15.29-4.47-8.68-7-16.6-9.41-27.28,3.1-2.96,1.83-5.57-3.18-8.14,.92-.78,3.59-3.02,3.18-5.54-.42-2.62-3.92-5.56-3.79-8.7,.73-18.71,1.15-42.5,.61-41.45-.17,.33-3.12,.1-7.34-.42,1.3,12.31,1.37,26.03,.76,38.36-.2,4.1,.16,5.51,1.53,9.15,.34,.91,2.61,2.52,2.66,3.56,.14,2.78-1.58,3.32-3.48,5.27,4.56,3.54,2.85,8.25,1.89,9.3-.81,.88-1.64,1.21-2.12,2.21,.28,11.94,2.31,23.15,10.78,32.31,3.9,4.22,9.19,7.87,13.97,11,3.76,2.46,8.39,4.3,11.35,7.81,3.26,3.87,3.01,7.92,.94,11.52,5.58-1.27,8.74-3.35,7.78-6.1Z"/>
            <path class="cls-3" d="M307.88,130.45c-6.6-5.67-8.24-13.12-11.88-20.89-1.96-4.17-3.95-8.29-6.8-11.94-3.72-4.78-8.1-9-11.99-13.63-3.27-3.9-5.92-8.18-6.8-12.77-.55,1.92-.9,3.97-.82,5.99,.31,7.33,6.55,9.84,16.25,23,7.46,10.12,9.06,17.89,11.84,25.97,2.75,7.99,14.35,16.74,29.13,16.88-6-4.56-12.27-6.9-18.92-12.61Z"/>
            <path class="cls-3" d="M274.29,67.77s1.63,4.96,8.39,6.81c6.76,1.85,13.93-2,13.93-2,0,0-9.27,1.13-13.22-.71-3.95-1.83-9.11-4.1-9.11-4.1Z"/>
            <path class="cls-3" d="M279.24,51.01s-.91,6,8.84,9.45c9.75,3.45,18.59-.34,18.59-.34,0,0-6.27-.94-14.04-2.39-7.77-1.46-13.39-6.72-13.39-6.72Z"/>
            <path class="cls-3" d="M290.23,52.04s6.46-.8,10.63-4.21c4.17-3.41,5.8-8.87,5.8-8.87,0,0,.28,10.97-5.21,13.61-5.49,2.64-11.23-.53-11.23-.53Z"/>
            <path class="cls-3" d="M290.23,79.07s7.39-1.26,12.71-1.66c5.32-.4,10.02-2.74,9.23-1.89-.78,.85-3.09,3.94-10.57,4.63-7.48,.69-12.68-1.69-12.68-1.69l1.31,.62Z"/>
            <path class="cls-3" d="M270.3,6.07c.78,8.21,15.47,7.95,25.25,9.4,9.78,1.45,16.51,1.8,15.52-3.92-.99-5.72-6.03-7.08-20.35-10.12-11.25-2.39-21.09-2.4-20.42,4.64Z"/>
          </g>
          <g>
            <path class="cls-3" d="M218.13,73.58c-4.04,5.98-1.31,8.21-.59,17.62,.72,9.41,.59,19.5,.59,19.5h6.56s-.44-13.97,1.22-18.15c1.06-2.68,3.16-2.53,3.16-2.53l-10.94-16.45Z"/>
            <path class="cls-3" d="M224.68,110.71c0,.84-1.47,1.53-3.28,1.53s-3.28-.68-3.28-1.53c0-.84,1.47-1.53,3.28-1.53s3.28,.68,3.28,1.53Z"/>
            <path class="cls-11" d="M219.91,69.13c.37-5.41,5.35-9.31,16.19,.95,9.47,8.97,17.21,21.39,23.63,29.36,6.61,8.21,13.55,16.04,18.9,21.15,3.94,3.77-7.64,14.62-7.64,14.62,0,0-18.49-3.09-24.86-15.69-6.37-12.6-13.97-24.5-20.39-32.58-6.42-8.07-6.31-10.86-5.83-17.82Z"/>
            <path class="cls-3" d="M219.88,76.01c-9.03,4.47,3.17,14.67,10.1,23.03s9.8,18.82,14.07,30.7c4.27,11.89,21.35,13.79,33.03,13.79,11.68,0,6.02-12.84-5.19-22.34-11.21-9.51-16.89-20.13-27.88-33.5-10.66-12.97-17.38-15.02-24.12-11.68Z"/>
            <path class="cls-10" d="M296.17,139.12c-2.44-6.98-12.17-13.74-16.53-17.59-2.4-3.21-6.17-8.65-9.6-15.29-4.47-8.68-7-16.6-9.41-27.28,3.1-2.96,1.84-5.57-3.18-8.14,.92-.78,3.59-3.02,3.18-5.54-.42-2.62-3.92-5.56-3.79-8.7,.73-18.71,1.15-42.5,.61-41.45-.64,1.25-40.78-5.48-40.78-5.48,0,0,2.21,13.78,3.23,29.06,.77,11.46,0,18.88-3.23,26.58-.84,1.99,2.07,3.85,1.55,5.54-1.25,2.84-2.41,6.46-2.26,9.96,.31,7.33,6.55,9.84,16.25,23,7.46,10.12,9.06,17.89,11.84,25.97,1.94,5.64,6.73,10.83,14.58,13.44,3.39,1.13,9.99,3.45,14.55,3.44,14.16-.01,24.64-2.78,22.99-7.51Z"/>
            <path class="cls-15" d="M296.17,139.12c-2.44-6.98-12.17-13.74-16.53-17.59-2.4-3.21-6.17-8.65-9.6-15.29-4.47-8.68-7-16.6-9.41-27.28,3.1-2.96,1.84-5.57-3.18-8.14,.92-.78,3.59-3.02,3.18-5.54-.42-2.62-3.92-5.56-3.79-8.7,.73-18.71,1.15-42.5,.61-41.45-.17,.33-3.12,.1-7.34-.42,1.3,12.31,1.37,26.03,.76,38.36-.2,4.1,.16,5.51,1.53,9.15,.34,.91,2.61,2.52,2.66,3.56,.14,2.78-1.58,3.32-3.48,5.27,4.56,3.54,2.85,8.25,1.89,9.3-.81,.88-1.64,1.21-2.12,2.21,.28,11.94,2.31,23.15,10.77,32.31,3.9,4.22,9.19,7.87,13.97,11,3.75,2.46,8.39,4.3,11.35,7.81,3.26,3.87,3.01,7.92,.94,11.52,5.58-1.27,8.74-3.35,7.78-6.1Z"/>
            <path class="cls-3" d="M254.26,134.02c-6.6-5.67-8.24-13.12-11.88-20.89-1.96-4.17-3.95-8.29-6.8-11.94-3.72-4.78-8.1-9-11.99-13.63-3.27-3.9-5.92-8.18-6.8-12.77-.55,1.92-.9,3.97-.82,5.99,.31,7.33,6.55,9.84,16.25,23,7.46,10.12,9.06,17.89,11.84,25.97,2.75,7.99,14.35,16.74,29.13,16.88-6-4.56-12.27-6.9-18.92-12.61Z"/>
            <path class="cls-3" d="M220.67,71.34s1.63,4.96,8.39,6.81c6.76,1.85,13.93-2,13.93-2,0,0-9.27,1.13-13.22-.71-3.95-1.83-9.11-4.1-9.11-4.1Z"/>
            <path class="cls-3" d="M225.62,54.57s-.91,6,8.84,9.45c9.75,3.45,18.59-.34,18.59-.34,0,0-6.27-.94-14.04-2.39-7.77-1.46-13.39-6.72-13.39-6.72Z"/>
            <path class="cls-3" d="M236.61,55.6s6.46-.8,10.63-4.21c4.17-3.41,5.8-8.87,5.8-8.87,0,0,.28,10.97-5.21,13.61-5.49,2.64-11.23-.53-11.23-.53Z"/>
            <path class="cls-3" d="M236.61,82.64s7.39-1.26,12.71-1.66c5.32-.4,10.02-2.74,9.23-1.89s-3.09,3.94-10.57,4.63c-7.48,.69-12.68-1.69-12.68-1.69l1.31,.62Z"/>
            <path class="cls-3" d="M216.68,9.64c.78,8.21,15.47,7.95,25.25,9.4,9.78,1.45,16.51,1.8,15.52-3.92-.99-5.72-6.03-7.08-20.35-10.12-11.25-2.39-21.1-2.4-20.42,4.64Z"/>
          </g>
          <g>
            <path class="cls-17" d="M197.11,278.1c6.57-4.37,12.76-8.25,20.59-10.04,1.09-.25,2.2-.45,3.31-.62-.37,1.26-.26,2.7,.37,4.07,1.76,3.87,6.44,6.33,10.15,7.91,4.05,1.72,8.46,2.59,12.86,2.55,3.07-.03,7.21-.19,9.6-2.41,5.98-5.55-6.64-10.41-10.28-11.64-6.53-2.22-13.51-2.91-20.36-2.24,2.91-1.3,5.57-2.82,8.71-3.58,2.78-.68,5.65-.95,8.51-.99,5.78-.07,11.52,.88,17.16,2.07,11.24,2.38,23.3,5.82,34.57,1.83,.26-.09,.15-.46-.11-.4-13.82,2.76-26.71-1.72-40.22-3.91-6.58-1.07-14.35-1.84-21.38,.41-5.34,1.71-8.54,4.52-8.7,4.71-1.04,.13-2.07,.3-3.09,.49-7.89,1.51-16.74,4.97-22.23,11.09-.33,.37,.1,1.01,.55,.71Zm24.94-10.8c6.12-.82,12.43-.53,18.4,1,3.79,.97,7.78,2.33,11.07,4.49,1.97,1.3,3.49,4.14,1.37,6.13-.76,.72-1.83,1.02-2.83,1.28-2.18,.56-4.56,.65-6.8,.59-4.56-.13-9.11-1.27-13.17-3.34-2-1.02-4.05-2.25-5.66-3.82-1.63-1.59-2.9-4.13-2.38-6.32Z"/>
            <g>
              <path class="cls-12" d="M260.75,222.77s6.65,6.03,8.82,9.5c2.17,3.47-4.71,3.23,1.6,9.84,5.51,5.76,47.52,31.58,47.52,31.58v3.9s-5.62,5.71-24.92-7.84c-12.06-8.47-22.73-18.37-28.46-24.94-4.94-5.66-4.05-7.1-3.06-8.31,2.63-3.23,1.06-5.09-3.28-9.24-4.9-4.68,1.78-4.49,1.78-4.49Z"/>
              <polygon class="cls-23" points="271.72 211.79 273.45 213.48 273.45 217.63 271.42 219.32 271.72 211.79"/>
              <polygon class="cls-23" points="239.95 200.82 238.81 206.01 237.39 204.78 237.37 200.64 239.95 200.82"/>
              <polygon class="cls-12" points="342.08 260.18 342.08 264.08 344.14 261.66 344.14 257.54 342.08 260.18"/>
              <path class="cls-23" d="M239.62,201.29c-4.39,2.43-1.91,7.24,3.62,12.47,7.13,6.76,17.14,14.87,17.14,14.87l5.28-1.06-3.26-3.16s2.83,.02,5.56-1c3.61-1.35,8.68-5.01,2.83-11.42-6.68-7.32-12.02-15.66-23.28-14.51-2.54,.26-6.61,3.11-7.89,3.81Zm12.56,1.48c5.58,.86,10.28,6.83,13.44,10.41,3.16,3.58,2.15,6.46-2.9,7.48-5.05,1.02-6.56-.05-10.51-3.75-4.59-4.29-8.58-8.23-9.37-10.34-1.17-3.09,3.77-4.66,9.34-3.8Z"/>
              <path class="cls-12" d="M248.52,229.83s9.06,4.64,15.07,5.89c6.01,1.25,5.59-2.72,17.03,.92,11.44,3.64,61.45,27.43,61.45,27.43,0,0,9.88-3.24-13.58-14.39-14.67-6.96-31.81-13.12-43.19-16.43-9.81-2.85-13.15-4.14-15.25-3.57-5.59,1.52-6.84,1.13-13.07-1.12-7.13-2.58-8.45,1.26-8.45,1.26Z"/>
              <path class="cls-23" d="M228.47,236.43c11.1,3.38,17.45,.45,19.78-1.63,1.77-1.58,1.72-3.63,1.72-3.63l6.5,2.15v-3.9s-11.84-6.1-23.54-10.21c-5.79-2.04-13.14-4.19-17.45-4.22-4.4-.03-7.09,3.46-8.09,6.74-1.98,6.5,8.41,10.86,21.08,14.71Zm-16.26-13.29c.53-1.99,3.02-3.33,6.88-2.85,3.66,.46,10.49,2.76,17.91,5.41,6.4,2.28,8.25,3.15,6.49,6.07-1.76,2.92-6.78,2.07-12.99,.25-6.21-1.82-14.72-4.55-17.49-6.77-1.1-.88-1.01-1.34-.81-2.11Z"/>
              <polygon class="cls-23" points="207.22 218.53 207.14 222.97 208.95 223.44 209.54 220.6 207.22 218.53"/>
            </g>
            <g>
              <path class="cls-26" d="M260.75,218.87s6.65,6.03,8.82,9.5c2.17,3.47-4.71,3.23,1.6,9.84,3.22,3.37,15.5,12.52,26.77,20.68,.48,.34,.95,.69,1.42,1.03,10.27,7.42,19.32,13.77,19.32,13.77,0,0-5.62,5.71-24.92-7.84-12.06-8.47-22.73-18.37-28.46-24.94-4.94-5.66-4.05-7.1-3.06-8.31,2.63-3.23,1.06-5.09-3.28-9.24-4.9-4.68,1.78-4.49,1.78-4.49Z"/>
              <path class="cls-4" d="M243.24,209.86c7.13,6.76,17.14,14.87,17.14,14.87l5.28-1.06-2.93-3s2.5-.13,5.23-1.15c3.61-1.35,8.68-5.01,2.83-11.42-6.68-7.32-14.23-13.31-25.49-12.17-11.26,1.14-9.19,7.19-2.06,13.94Zm8.94-10.99c5.58,.86,10.28,6.83,13.44,10.41,3.16,3.58,2.15,6.46-2.9,7.48-5.05,1.02-6.56-.05-10.51-3.75-4.59-4.29-8.58-8.23-9.37-10.34-1.17-3.09,3.77-4.66,9.34-3.8Z"/>
              <path class="cls-18" d="M248.52,225.93s9.06,4.64,15.07,5.89c6.01,1.25,5.59-2.72,17.03,.92,11.44,3.65,61.45,27.43,61.45,27.43,0,0,9.88-3.24-13.58-14.39-14.67-6.96-31.81-13.12-43.19-16.43-9.81-2.85-12.3-2.34-14.4-1.77-5.59,1.52-8.56,.47-14.8-1.78-7.13-2.58-7.58,.11-7.58,.11Z"/>
              <path class="cls-4" d="M228.47,232.52c11.1,3.38,17.45,.45,19.78-1.63,1.77-1.58,1.72-3.63,1.72-3.63l6.44,2.24,1.85-2.97s-15.02-5.78-26.72-9.9c-11.7-4.12-22.17-5.31-24.15,1.19-1.98,6.5,8.41,10.86,21.08,14.71Zm-9.38-16.14c3.66,.46,10.49,2.76,17.91,5.41,6.4,2.28,8.25,3.15,6.49,6.07-1.76,2.92-6.75,3.49-12.95,1.67-6.21-1.82-16.54-4.54-18.04-7.76-1.49-3.22,1.23-6.07,6.58-5.4Z"/>
              <path class="cls-12" d="M264.65,229.95c0,.73,.89,1.32,1.98,1.32s1.98-.59,1.98-1.32-.89-1.32-1.98-1.32-1.98,.59-1.98,1.32Z"/>
            </g>
            <path class="cls-17" d="M297.93,258.9c1.97-2.07,3.28-4.16,4.26-7.38,.96-3.15,1.63-6.46,3.38-9.3,3.54-5.72,10.47-6.84,16.68-5.99,4.24,.58,8.32,2.15,12.59,2.5,4.25,.35,6.41-.65,6.49-2.81,.08-2.07-1.03-3.53-2.79-4.19-1.86-1.13-4.18-1.75-6.24-2.44-8.89-2.98-17.95-4.54-27.21-5.84-1.73-.24-1.2-1.07,.12-.97,8.88,.71,21.3,3.28,31.11,6.86,2.61,.95,5.58,2.65,6.07,5.77,.47,3.01-1.98,4.71-4.68,5.07-9.64,1.26-22.18-8.09-29.99,1.69-3.31,4.14-3.99,13.71-8.36,18.07-.12,.12-1.1-.65-1.43-1.02Z"/>
          </g>
          <g>
            <g>
              <g>
                <path class="cls-17" d="M189.5,118l-.07,7.54h0c-.06,6.67-9.88,11.98-21.72,11.86-11.84-.11-21.55-5.61-21.49-12.28h0l.07-7.54,43.21,.42Z"/>
                <path class="cls-2" d="M146.3,117.59c-.06,6.71,9.55,12.25,21.48,12.37,11.93,.12,21.65-5.23,21.72-11.95,.06-6.71-9.55-12.25-21.48-12.37-11.93-.12-21.65,5.23-21.72,11.95Z"/>
              </g>
              <g>
                <path class="cls-17" d="M178.7,111.83l-.04,3.77h0c-.03,3.34-4.94,6-10.88,5.94-5.93-.06-10.79-2.81-10.76-6.15h0l.04-3.77,21.63,.21Z"/>
                <path class="cls-7" d="M157.06,111.62c-.03,3.36,4.78,6.13,10.76,6.19,5.97,.06,10.84-2.62,10.87-5.98,.03-3.36-4.78-6.13-10.76-6.19-5.97-.06-10.84,2.62-10.87,5.98Z"/>
              </g>
              <path class="cls-20" d="M173.04,30.03V111.24c0,1.72-2.52,3.11-5.57,3.11s-5.57-1.39-5.57-3.11V30.03h11.15Z"/>
            </g>
            <g>
              <path class="cls-9" d="M158.83,5.47c5.44-3.02,15.32-8.7,27.54-1.64,12.23,7.06,6.24,17.09,4.62,23.64-.87,3.54-1.63,8.24-2.14,11.82-.5,3.48-2.42,6.59-5.3,8.61-4.06,2.85-9.77,6.59-12.71,7.31-7.87,1.92-13.38,.97-18.74,.74-8.12-.34-14.71,3.44-28.47,8.57-16.27,6.07-39.4-1.96-37.26-11.9,2.59-12.01,19.85-22.37,41.55-30.46,17.52-6.54,25.99-13.96,30.9-16.69Z"/>
              <path class="cls-1" d="M121.9,51.09c20.32-9.13,40.04-8.35,52.76-23.69,7.77-9.37,14.23-14.3,18.31-16.8,2.5,5.84-.84,12.23-1.98,16.86-.87,3.54-1.63,8.24-2.14,11.82-.5,3.48-2.42,6.59-5.3,8.61-4.06,2.85-9.77,6.59-12.71,7.31-7.87,1.92-13.38,.97-18.74,.74-8.12-.34-14.71,3.44-28.47,8.57-6.95,2.59-15.16,2.61-22.11,1,3.44-5.17,10.32-9.92,20.37-14.43Z"/>
              <path class="cls-19" d="M152.1,9.83s5.42,5.29,11.41,9c5.98,3.7,8.91,5.67,11.83,10.24,2.92,4.57,2.72,10.77-7.39,15.1-8.11,3.47-10.42,12.11-10.42,12.11h-3.92s1.28-9.79,9.89-14.31c8.61-4.52,13.88-6.35,8.03-12.89-5.85-6.54-8.37-5.79-14-10.24-5.43-4.3-9-6.71-9-6.71l3.56-2.28Z"/>
            </g>
          </g>
          <path class="cls-6" d="M219.71,168c2.19-1.27,8.39-4.68,15.2-2.53,5.61,1.77,11.78,6.8,16.06,12.73,2.59,3.6,5.81,7.16,7.93,9.4l-1.47,.85,42.19,25.94-45.49-24.04-1.52,.88c-3.89-1.23-10.06-3.08-16.29-4.58-10.27-2.47-18.97-6.32-20.37-9.69-2.63-6.31,1.56-7.69,3.76-8.96Z"/>
          <g>
            <path class="cls-9" d="M242.14,166.14c-2.19-2.58-4.56-5.7-6.66-7.66-.71-.67-1.84-1.74-3.62-2.39-1.57-.58-3.22-1.07-5.01-1.07-6.78,0-12.27,5.49-12.27,12.27,0,4.09,2,7.7,5.07,9.93,.35,.25,2.49,1.63,4.31,2.18,2.05,.61,4.17,1.23,6.38,1.56,6.75,1.02,17.1,6.18,17.1,6.18l5.85-12.09s-8.07-5.28-11.15-8.91Z"/>
            <path class="cls-1" d="M234.93,174.67c-3.83-.8-8.35-.78-11.63-3.18-3.45-2.52-3.59-7.34-2.09-11.02,.93-2.29,2.53-4.14,4.5-5.39-6.24,.58-11.12,5.82-11.12,12.21,0,4.09,2,7.7,5.07,9.93,.35,.25,2.49,1.63,4.31,2.18,2.05,.61,4.17,1.23,6.38,1.56,6.75,1.02,17.1,6.18,17.1,6.18l2.36-4.88c-2.62-1.82-11.75-6.93-14.86-7.58Z"/>
            <path class="cls-19" d="M239.02,181.83c-3.63-1.41-7.34-2.54-11.1-3.57-2.69-.74-5.53-1.36-7.8-3.1-6.88-5.26-4.12-14.41,1.74-19.08-4.29,1.91-7.29,6.2-7.29,11.2,0,4.09,2,7.7,5.07,9.93,.35,.25,2.49,1.63,4.31,2.18,2.05,.61,4.17,1.23,6.38,1.56,6.75,1.02,17.1,6.18,17.1,6.18l.6-1.24c-2.86-1.63-5.97-2.88-9.01-4.07Z"/>
            <g>
              <path class="cls-26" d="M253.29,175.05h0c-.8-.62-1.91-.65-3.14,.05-2.43,1.4-4.4,5.16-4.4,8.4,0,1.87,.66,3.15,1.68,3.63h0s3.3,1.92,3.3,1.92l5.65-12.24-3.09-1.76Z"/>
              <path class="cls-14" d="M252.41,183.52c-2.22-1.13-4.37-2.46-6.03-3.38-.39,1.1-.62,2.26-.62,3.36,0,1.87,.66,3.15,1.68,3.63h0s3.3,1.92,3.3,1.92l2.16-4.68c-.3-.23-.15-.69-.48-.85Z"/>
              <path class="cls-16" d="M245.87,184.75c.23,1.19,.79,2.02,1.56,2.39h0s3.3,1.92,3.3,1.92l.59-1.27c-1.89-1.02-4.16-2.36-5.44-3.04Z"/>
              <path class="cls-18" d="M257.95,180.4c0,3.24-1.97,7-4.4,8.4-2.43,1.4-4.4-.09-4.4-3.32s1.97-7,4.4-8.4c2.43-1.4,4.4,.09,4.4,3.32Z"/>
            </g>
            <path class="cls-24" d="M228.23,158.31c-1.9,1.34-.65,4.69,3.99,6.45,4.63,1.76,6.48,.26,3.53-3.14-2.26-2.61-5.21-4.92-7.51-3.31Z"/>
            <path class="cls-26" d="M300.95,209.95s-5.75-4.47-13.29-9.07c-5.63-3.44-33.3-19.52-33.31-19.53-.16-.12-.39-.13-.64,.02-.5,.29-.91,1.07-.91,1.74,0,.3,.08,.52,.22,.65h0c.06,.06,.14,.11,.22,.13,2.39,1.35,24.3,13.73,30.91,17.5,8.43,4.8,16.8,8.57,16.8,8.57Z"/>
            <path class="cls-14" d="M252.97,182.32c-.1,.25-.17,.52-.17,.77,0,.3,.08,.52,.22,.65h0c.06,.06,.14,.11,.22,.13,2.39,1.35,24.3,13.73,30.91,17.5,8.43,4.8,16.8,8.57,16.8,8.57,0,0-39.07-22.12-47.98-27.62Z"/>
          </g>
          <path class="cls-6" d="M265.46,176.33l75.65,41.88,6.08-3.85-69.52-45.08c-2.92-1.68-8.02-1.47-11.39,.47h0c-3.37,1.95-3.74,4.89-.82,6.57Z"/>
          <g>
            <g>
              <g>
                <path class="cls-17" d="M305.2,190.98s-10.92-4.65-23.76-10.92c-12.84-6.26-17.41-10.16-12.86-12.79,4.55-2.62,11.97,.94,18.41,4.8,6.44,3.86,24.71,15.15,24.71,15.15l-6.49,3.75Z"/>
                <path class="cls-17" d="M273.39,163.21s-3.73-2.11-5.87,0c-2.14,2.11-1.98,5.94,.26,8.34,2.95,3.15,10.31,1.97,10.31,1.97l-4.7-10.3Z"/>
                <path class="cls-2" d="M305.2,186.11s-10.92-4.65-23.76-10.92c-12.84-6.26-17.41-10.16-12.86-12.79,4.55-2.62,11.97,.94,18.41,4.8,6.44,3.86,24.71,15.15,24.71,15.15l-6.49,3.75Z"/>
                <path class="cls-21" d="M286.7,170.42c5.81,3.42,11.83,6.82,23.05,13.05l1.94-1.12s-18.27-11.29-24.71-15.15c-6.44-3.86-13.86-7.43-18.41-4.8-1.41,.81-1.94,1.75-1.62,2.84,5.53-4.96,14.82,2.28,19.75,5.19Z"/>
                <polygon class="cls-8" points="311.7 182.36 305.2 186.11 305.2 190.98 311.7 187.23 311.7 182.36"/>
              </g>
              <path class="cls-26" d="M309.78,181.22c-.65-.39-1.41-.41-2.39,.15-1.95,1.12-3.52,4.14-3.52,6.73,0,1.5,.53,2.53,1.35,2.91h0s2.64,1.54,2.64,1.54l4.53-9.81-2.6-1.53Z"/>
              <path class="cls-13" d="M311.92,184.85l.46-2.1-2.6-1.53c-.65-.39-1.41-.41-2.39,.15-.21,.12-.42,.27-.62,.44,.97,.54,3.4,1.86,5.15,3.03Z"/>
              <path class="cls-14" d="M309.17,188.36c-1.78-.91-3.97-2.25-4.9-2.67-.26,.8-.41,1.63-.41,2.42,0,1.5,.53,2.53,1.35,2.91h0s2.64,1.54,2.64,1.54l1.73-3.75c-.24-.18-.15-.32-.41-.45Z"/>
              <path class="cls-18" d="M313.64,185.62c0,2.59-1.58,5.61-3.52,6.73-1.95,1.12-3.52-.07-3.52-2.66s1.58-5.61,3.52-6.73c1.95-1.12,3.52,.07,3.52,2.66Z"/>
              <path class="cls-12" d="M312.73,186.63c0,1.7-1.03,3.67-2.31,4.41-1.27,.74-2.31-.05-2.31-1.74s1.03-3.67,2.31-4.41c1.27-.74,2.31,.05,2.31,1.74Z"/>
            </g>
            <g>
              <polygon class="cls-14" points="337.82 194 338.24 193.15 339.09 192.7 339.83 195.59 341.51 195.15 341.64 197.87 343.57 198.33 343.08 200.62 345.07 201.94 344.01 203.57 345.85 205.62 344.32 206.44 345.85 209.02 345 209.46 344.01 208.94 345.07 211.79 344.21 212.24 343.08 210.82 343.57 213.67 342.72 214.12 341.64 211.91 341.51 214.48 340.66 214.92 339.83 212.1 339.09 214.13 338.24 214.58 337.82 211.36 336.54 212.66 335.69 213.11 335.8 209.77 334.12 210.21 333.99 207.49 332.06 207.03 332.55 204.74 330.57 203.42 331.63 201.79 329.78 199.74 331.31 198.92 328.93 196.79 329.78 196.34 331.63 196.42 329.71 194.02 330.57 193.57 332.55 194.54 331.21 192.13 332.06 191.69 333.99 193.45 333.27 191.33 334.12 190.88 335.8 193.27 335.69 191.68 336.54 191.23 337.82 194"/>
              <polygon class="cls-18" points="336.96 194.45 338.24 193.15 338.97 196.03 340.66 195.59 340.79 198.31 342.72 198.78 342.23 201.07 344.21 202.39 343.15 204.02 345 206.07 343.47 206.88 345 209.46 343.15 209.38 344.21 212.24 342.23 211.27 342.72 214.12 340.79 212.36 340.66 214.92 338.97 212.54 338.24 214.58 336.96 211.81 335.69 213.11 334.95 210.22 333.27 210.66 333.14 207.94 331.21 207.48 331.7 205.19 329.71 203.87 330.77 202.23 328.93 200.18 330.45 199.37 328.93 196.79 330.77 196.87 329.71 194.02 331.7 194.99 331.21 192.13 333.14 193.9 333.27 191.33 334.95 193.71 335.69 191.68 336.96 194.45"/>
            </g>
            <path class="cls-12" d="M308.73,191.01l28.03,15.4c.99,.55,2.21-.17,2.21-1.3v-.72c0-1.51-.77-2.91-2.04-3.72l-25.12-15.96-3.07,6.3Z"/>
            <path class="cls-18" d="M335.88,202.98c0,.67,.4,1.44,.9,1.73,.5,.29,.9-.02,.9-.68,0-.67-.4-1.44-.9-1.73-.5-.29-.9,.02-.9,.68Z"/>
          </g>
        </g>
      </g>
    </g>
  </g>
</svg>