<svg id="Capa_1" data-name="Capa 1" xmlns="http://www.w3.org/2000/svg" viewBox="0 0 878 879"><defs><style>.cls-1{fill:none;stroke:#f7f4ef;stroke-miterlimit:10;stroke-width:15px;}.cls-2{fill:#f7f4ef;}</style></defs><path class="cls-1" d="M439,864h0C204.55,864,14.5,674,14.5,439.5h0C14.5,205.05,204.55,15,439,15h0c234.45,0,424.5,190.05,424.5,424.5h0C863.5,674,673.45,864,439,864Z"/><rect class="cls-2" x="257.83" y="355.36" width="77.9" height="251.66"/><path class="cls-2" d="M296.4,322.41A46.44,46.44,0,1,0,250.34,276,46.27,46.27,0,0,0,296.4,322.41Z"/><path class="cls-2" d="M460.25,474.92c0-35.38,16.29-56.46,47.47-56.46,28.64,0,42.4,20.23,42.4,56.46V607h77.54V447.68c0-67.41-38.21-100-91.57-100s-75.84,41.58-75.84,41.58v-33.9H385.53V607h74.72Z"/></svg>