<svg id="Capa_1" data-name="Capa 1" xmlns="http://www.w3.org/2000/svg" viewBox="0 0 878 879"><defs><style>.cls-1{fill:none;stroke:#f7f4ef;stroke-miterlimit:10;stroke-width:15px;}.cls-2{fill:#f7f4ef;}</style></defs><path class="cls-1" d="M439,864h0C204.55,864,14.5,674,14.5,439.5h0C14.5,205.06,204.55,15,439,15h0c234.45,0,424.5,190.06,424.5,424.5h0C863.5,674,673.45,864,439,864Z"/><path class="cls-2" d="M439,186.9C299.5,186.9,186.4,300,186.4,439.51S299.5,692.1,439,692.1,691.6,579,691.6,439.51,578.51,186.9,439,186.9Zm0,43.93a207.48,207.48,0,0,1,127.22,43.63q-38,49.07-105,77.45a968.29,968.29,0,0,0-73.42-114.45A207.23,207.23,0,0,1,439,230.83Zm-94.13,22.7A939.48,939.48,0,0,1,419.31,366.8c-51.16,15.06-112.22,22.8-182.81,23.29A209.3,209.3,0,0,1,344.86,253.53Zm-114.52,186c0-1.8.24-3.57.28-5.37q121.49-.18,209.42-27.84,7.36,15,14.11,30.15Q347.46,469.78,278.66,572.82A207.65,207.65,0,0,1,230.34,439.49ZM439,648.17a207.33,207.33,0,0,1-128-44.26c41.43-65,94.36-107.34,159.92-126.87a826,826,0,0,1,43,157A207.28,207.28,0,0,1,439,648.17ZM554.82,613a866.23,866.23,0,0,0-40.41-145.17q59.22-8.37,130.48,4.13A208.74,208.74,0,0,1,554.82,613ZM497.57,426.2c-5.13-11.86-10.45-23.67-16.14-35.36,48.6-21.06,87.67-49.65,116.79-85.92a207.76,207.76,0,0,1,48.86,122.82Q565.77,414.42,497.57,426.2Z"/></svg>