<svg id="Capa_1" data-name="Capa 1" xmlns="http://www.w3.org/2000/svg" viewBox="0 0 878 879"><defs><style>.cls-1{fill:none;stroke:#f7f4ef;stroke-miterlimit:10;stroke-width:15px;}.cls-2{fill:#f7f4ef;}</style></defs><path class="cls-1" d="M439,864h0C204.55,864,14.5,674,14.5,439.5h0C14.5,205.06,204.55,15,439,15h0c234.44,0,424.5,190.06,424.5,424.5h0C863.5,674,673.44,864,439,864Z"/><path class="cls-2" d="M439,270.31c55.11,0,61.63.21,83.39,1.2,20.12.92,31.05,4.28,38.33,7.11a68.33,68.33,0,0,1,39.16,39.16c2.83,7.28,6.19,18.2,7.11,38.33,1,21.76,1.2,28.29,1.2,83.39s-.21,61.64-1.2,83.4c-.92,20.12-4.28,31-7.11,38.32a68.26,68.26,0,0,1-39.16,39.16c-7.28,2.83-18.21,6.19-38.33,7.11-21.76,1-28.28,1.2-83.39,1.2s-61.63-.21-83.39-1.2c-20.12-.92-31.05-4.28-38.33-7.11a68.26,68.26,0,0,1-39.16-39.16c-2.83-7.28-6.19-18.2-7.11-38.32-1-21.76-1.2-28.29-1.2-83.4s.21-61.63,1.2-83.39c.92-20.13,4.28-31.05,7.11-38.33a68.33,68.33,0,0,1,39.16-39.16c7.28-2.83,18.21-6.19,38.33-7.11,21.76-1,28.29-1.2,83.39-1.2m0-37.19c-56.05,0-63.08.24-85.09,1.25s-37,4.49-50.1,9.59a105.48,105.48,0,0,0-60.35,60.36c-5.1,13.13-8.6,28.12-9.59,50.09s-1.25,29-1.25,85.09.24,63.08,1.25,85.09,4.49,37,9.59,50.1a105.56,105.56,0,0,0,60.35,60.36c13.13,5.1,28.13,8.59,50.1,9.59s29,1.24,85.09,1.24,63.07-.24,85.09-1.24,37-4.49,50.09-9.59a105.54,105.54,0,0,0,60.36-60.36c5.1-13.13,8.59-28.13,9.6-50.1s1.24-29,1.24-85.09-.24-63.07-1.24-85.09-4.5-37-9.6-50.09A105.46,105.46,0,0,0,574.18,244c-13.13-5.1-28.12-8.59-50.09-9.59s-29-1.25-85.09-1.25"/><path class="cls-2" d="M439,333.52a106,106,0,1,0,106,106,106,106,0,0,0-106-106m0,174.77a68.79,68.79,0,1,1,68.79-68.79A68.79,68.79,0,0,1,439,508.29"/><path class="cls-2" d="M573.93,329.33a24.77,24.77,0,1,1-24.76-24.76,24.77,24.77,0,0,1,24.76,24.76"/></svg>