<svg id="Capa_1" data-name="Capa 1" xmlns="http://www.w3.org/2000/svg" viewBox="0 0 878 879"><defs><style>.cls-1{fill:none;stroke:#f7f4ef;stroke-miterlimit:10;stroke-width:15px;}.cls-2{fill:#f7f4ef;fill-rule:evenodd;}</style></defs><path class="cls-1" d="M439,863.5h0c-234.17,0-424-189.83-424-424h0c0-234.17,189.83-424,424-424h0c234.17,0,424,189.83,424,424h0C863,673.67,673.17,863.5,439,863.5Z"/><path class="cls-2" d="M695.55,419c-3.33-131.7-111.81-237.43-245.35-237.43-131.93,0-239.5,103.32-245.24,233-.12,3.56-.23,7.13-.23,10.69A241.83,241.83,0,0,0,239.89,551L195.65,681.68l136-43.21a245.8,245.8,0,0,0,118.6,30.34c135.61,0,245.47-109.06,245.47-243.63C695.67,423.11,695.67,421,695.55,419ZM450.2,630a205.55,205.55,0,0,1-113.54-33.89l-79.3,25.28,25.75-76.08A202.74,202.74,0,0,1,243.8,425.18a192.88,192.88,0,0,1,1-19.88C255,301.64,343.21,220.39,450.2,220.39c108.37,0,197.43,83.31,205.71,188.81.46,5.29.69,10.58.69,16C656.6,538.14,564,630,450.2,630Z"/><path class="cls-2" d="M562.71,474.36c-6.09-3-35.63-17.46-41.14-19.42s-9.55-3-13.56,3-15.63,19.42-19.08,23.33-7,4.48-13.1,1.49-25.4-9.19-48.39-29.65c-17.81-15.74-30-35.28-33.44-41.25s-.34-9.2,2.65-12.18c2.75-2.76,6-7,9.07-10.46.81-1,1.5-2,2.19-2.88a66.73,66.73,0,0,0,3.79-7.12c2.07-4,1-7.47-.46-10.46s-13.56-32.41-18.62-44.36-10-9.88-13.56-9.88-7.47-.57-11.49-.57a22.25,22.25,0,0,0-16.09,7.47c-5.51,6-21,20.45-21,49.87a75.75,75.75,0,0,0,3.11,20.34c6.09,21,19.19,38.38,21.49,41.37,3,3.91,41.6,66.2,102.73,90.22C519,547,519,539.07,530.07,538s35.63-14.36,40.56-28.39,5.06-25.85,3.57-28.38S568.68,477.35,562.71,474.36Z"/></svg>